<svg width="1681" height="245" viewBox="0 0 1681 245" fill="none" xmlns="http://www.w3.org/2000/svg">
<g clip-path="url(#clip0_2_3)">
<path fill-rule="evenodd" clip-rule="evenodd" d="M608.216 151.275L526.274 182.155L514.242 150.127L596.184 119.248L608.216 151.275Z" fill="#F73859"/>
<path fill-rule="evenodd" clip-rule="evenodd" d="M452.641 211.792V42.8324L486.807 30V211.792H452.641Z" fill="#F73859"/>
<path fill-rule="evenodd" clip-rule="evenodd" d="M96.0327 215V99.5087H130.199V215H96.0327Z" fill="#F73859"/>
<path fill-rule="evenodd" clip-rule="evenodd" d="M723.834 146.561V30L758 42.8324V146.561L723.834 146.561Z" fill="#F73859"/>
<path fill-rule="evenodd" clip-rule="evenodd" d="M371.497 145.491V55.6647L405.663 42.8324V145.491C405.663 163.209 420.003 177.572 437.693 177.572V211.792C401.134 211.792 371.497 182.108 371.497 145.491Z" fill="#F73859"/>
<path fill-rule="evenodd" clip-rule="evenodd" d="M294.623 145.491V55.6647L328.789 42.8324V145.491C328.789 163.209 343.13 177.572 360.82 177.572V211.792C324.26 211.792 294.623 182.108 294.623 145.491Z" fill="#F73859"/>
<path fill-rule="evenodd" clip-rule="evenodd" d="M437.693 119.827H388.58V85.6069H437.693V119.827Z" fill="#F73859"/>
<path fill-rule="evenodd" clip-rule="evenodd" d="M360.82 119.827H311.706V85.6069H360.82V119.827Z" fill="#F73859"/>
<path fill-rule="evenodd" clip-rule="evenodd" d="M281.811 148.699C281.811 183.544 253.607 211.792 218.817 211.792C184.026 211.792 155.823 183.544 155.823 148.699C155.823 113.854 184.026 85.6069 218.817 85.6069C253.607 85.6069 281.811 113.854 281.811 148.699ZM218.817 177.572C234.738 177.572 247.644 164.645 247.644 148.699C247.644 132.753 234.738 119.827 218.817 119.827C202.896 119.827 189.989 132.753 189.989 148.699C189.989 164.645 202.896 177.572 218.817 177.572Z" fill="#F73859"/>
<path d="M619.436 126.481C614.624 113.673 605.786 102.78 594.253 95.4426C582.72 88.1054 569.118 84.7226 555.498 85.8042C541.878 86.8858 528.978 92.3732 518.744 101.439C508.51 110.505 501.496 122.657 498.76 136.064C496.024 149.471 497.714 163.406 503.575 175.767C509.437 188.128 519.152 198.245 531.255 204.593C543.359 210.941 557.195 213.175 570.678 210.959C584.16 208.743 596.558 202.197 606.001 192.308L581.396 168.738C577.057 173.282 571.36 176.29 565.164 177.308C558.969 178.326 552.611 177.3 547.05 174.383C541.488 171.466 537.024 166.817 534.33 161.137C531.637 155.457 530.86 149.054 532.118 142.893C533.375 136.733 536.598 131.149 541.301 126.983C546.003 122.817 551.931 120.296 558.189 119.799C564.448 119.302 570.698 120.856 575.997 124.227C581.297 127.599 585.358 132.605 587.569 138.49L619.436 126.481Z" fill="#F73859"/>
<path d="M597.451 134.766L619.436 126.481L626.204 144.497L604.219 152.781L597.451 134.766Z" fill="#F73859"/>
<path fill-rule="evenodd" clip-rule="evenodd" d="M758 148.699C758 184.707 728.137 211.792 693.939 211.792C659.74 211.792 629.877 184.707 629.877 148.699C629.877 112.692 659.74 85.6069 693.939 85.6069C728.137 85.6069 758 112.692 758 148.699ZM693.939 177.572C710.449 177.572 723.834 164.645 723.834 148.699C723.834 132.753 710.449 119.827 693.939 119.827C677.428 119.827 664.043 132.753 664.043 148.699C664.043 164.645 677.428 177.572 693.939 177.572Z" fill="#F73859"/>
<path fill-rule="evenodd" clip-rule="evenodd" d="M42 47.1098L113.116 159.886L184.231 47.1098H143.627L113.116 94.7387L82.6047 47.1098H42Z" fill="#F73859"/>
<path d="M903.36 169.8H830.4L816.96 207H793.92L854.4 40.68H879.6L939.84 207H916.8L903.36 169.8ZM897.12 152.04L866.88 67.56L836.64 152.04H897.12ZM1078.04 88.68C1078.04 102.6 1073.24 114.2 1063.64 123.48C1054.2 132.6 1039.72 137.16 1020.2 137.16H988.039V207H966.199V39.72H1020.2C1039.08 39.72 1053.4 44.28 1063.16 53.4C1073.08 62.52 1078.04 74.28 1078.04 88.68ZM1020.2 119.16C1032.36 119.16 1041.32 116.52 1047.08 111.24C1052.84 105.96 1055.72 98.44 1055.72 88.68C1055.72 68.04 1043.88 57.72 1020.2 57.72H988.039V119.16H1020.2ZM1127.02 39.72V207H1105.18V39.72H1127.02Z" fill="#283149"/>
</g>
<defs>
<clipPath id="clip0_2_3">
<rect width="1681" height="245" fill="white"/>
</clipPath>
</defs>
</svg>
