<svg width="1202" height="245" viewBox="0 0 1202 245" fill="none" xmlns="http://www.w3.org/2000/svg">
<g clip-path="url(#clip0_2_3)">
<path fill-rule="evenodd" clip-rule="evenodd" d="M615.216 151.275L533.274 182.155L521.242 150.127L603.184 119.248L615.216 151.275Z" fill="#F73859"/>
<path fill-rule="evenodd" clip-rule="evenodd" d="M459.641 211.792V42.8324L493.807 30V211.792H459.641Z" fill="#F73859"/>
<path fill-rule="evenodd" clip-rule="evenodd" d="M103.033 215V99.5087H137.199V215H103.033Z" fill="#F73859"/>
<path fill-rule="evenodd" clip-rule="evenodd" d="M730.834 146.561V30L765 42.8324V146.561L730.834 146.561Z" fill="#F73859"/>
<path fill-rule="evenodd" clip-rule="evenodd" d="M378.497 145.491V55.6647L412.663 42.8324V145.491C412.663 163.209 427.003 177.572 444.693 177.572V211.792C408.134 211.792 378.497 182.108 378.497 145.491Z" fill="#F73859"/>
<path fill-rule="evenodd" clip-rule="evenodd" d="M301.623 145.491V55.6647L335.789 42.8324V145.491C335.789 163.209 350.13 177.572 367.82 177.572V211.792C331.26 211.792 301.623 182.108 301.623 145.491Z" fill="#F73859"/>
<path fill-rule="evenodd" clip-rule="evenodd" d="M444.693 119.827H395.58V85.6069H444.693V119.827Z" fill="#F73859"/>
<path fill-rule="evenodd" clip-rule="evenodd" d="M367.82 119.827H318.706V85.6069H367.82V119.827Z" fill="#F73859"/>
<path fill-rule="evenodd" clip-rule="evenodd" d="M288.811 148.699C288.811 183.544 260.607 211.792 225.817 211.792C191.026 211.792 162.823 183.544 162.823 148.699C162.823 113.854 191.026 85.6069 225.817 85.6069C260.607 85.6069 288.811 113.854 288.811 148.699ZM225.817 177.572C241.738 177.572 254.644 164.645 254.644 148.699C254.644 132.753 241.738 119.827 225.817 119.827C209.896 119.827 196.989 132.753 196.989 148.699C196.989 164.645 209.896 177.572 225.817 177.572Z" fill="#F73859"/>
<path d="M626.436 126.481C621.624 113.673 612.786 102.78 601.253 95.4426C589.72 88.1054 576.118 84.7226 562.498 85.8042C548.878 86.8858 535.978 92.3732 525.744 101.439C515.51 110.505 508.496 122.657 505.76 136.064C503.024 149.471 504.714 163.406 510.575 175.767C516.437 188.128 526.152 198.245 538.255 204.593C550.359 210.941 564.195 213.175 577.678 210.959C591.16 208.743 603.558 202.197 613.001 192.308L588.396 168.738C584.057 173.282 578.36 176.29 572.164 177.308C565.969 178.326 559.611 177.3 554.05 174.383C548.488 171.466 544.024 166.817 541.33 161.137C538.637 155.457 537.86 149.054 539.118 142.893C540.375 136.733 543.598 131.149 548.301 126.983C553.003 122.817 558.931 120.296 565.189 119.799C571.448 119.302 577.698 120.856 582.997 124.227C588.297 127.599 592.358 132.605 594.569 138.49L626.436 126.481Z" fill="#F73859"/>
<path d="M604.451 134.766L626.436 126.481L633.204 144.497L611.219 152.781L604.451 134.766Z" fill="#F73859"/>
<path fill-rule="evenodd" clip-rule="evenodd" d="M765 148.699C765 184.707 735.137 211.792 700.939 211.792C666.74 211.792 636.877 184.707 636.877 148.699C636.877 112.692 666.74 85.6069 700.939 85.6069C735.137 85.6069 765 112.692 765 148.699ZM700.939 177.572C717.449 177.572 730.834 164.645 730.834 148.699C730.834 132.753 717.449 119.827 700.939 119.827C684.428 119.827 671.043 132.753 671.043 148.699C671.043 164.645 684.428 177.572 700.939 177.572Z" fill="#F73859"/>
<path fill-rule="evenodd" clip-rule="evenodd" d="M49 47.1098L120.116 159.886L191.231 47.1098H150.627L120.116 94.7387L89.6047 47.1098H49Z" fill="#F73859"/>
<path d="M910.36 169.8H837.4L823.96 207H800.92L861.4 40.68H886.6L946.84 207H923.8L910.36 169.8ZM904.12 152.04L873.88 67.56L843.64 152.04H904.12ZM1085.04 88.68C1085.04 102.6 1080.24 114.2 1070.64 123.48C1061.2 132.6 1046.72 137.16 1027.2 137.16H995.039V207H973.199V39.72H1027.2C1046.08 39.72 1060.4 44.28 1070.16 53.4C1080.08 62.52 1085.04 74.28 1085.04 88.68ZM1027.2 119.16C1039.36 119.16 1048.32 116.52 1054.08 111.24C1059.84 105.96 1062.72 98.44 1062.72 88.68C1062.72 68.04 1050.88 57.72 1027.2 57.72H995.039V119.16H1027.2ZM1134.02 39.72V207H1112.18V39.72H1134.02Z" fill="#283149"/>
</g>
<defs>
<clipPath id="clip0_2_3">
<rect width="1202" height="245" fill="white"/>
</clipPath>
</defs>
</svg>
