<svg width="717" height="185" viewBox="0 0 717 185" fill="none" xmlns="http://www.w3.org/2000/svg">
<path fill-rule="evenodd" clip-rule="evenodd" d="M566.948 121.275L485.005 152.155L472.974 120.127L554.916 89.2476L566.948 121.275Z" fill="#F73859"/>
<path fill-rule="evenodd" clip-rule="evenodd" d="M411.373 181.792V12.8324L445.539 0V181.792H411.373Z" fill="#F73859"/>
<path fill-rule="evenodd" clip-rule="evenodd" d="M54.7643 185V69.5087H88.9304V185H54.7643Z" fill="#F73859"/>
<path fill-rule="evenodd" clip-rule="evenodd" d="M682.565 116.561V1.49579e-06L716.732 12.8324V116.561L682.565 116.561Z" fill="#F73859"/>
<path fill-rule="evenodd" clip-rule="evenodd" d="M330.228 115.491V25.6647L364.394 12.8324V115.491C364.394 133.209 378.735 147.572 396.425 147.572V181.792C359.866 181.792 330.228 152.108 330.228 115.491Z" fill="#F73859"/>
<path fill-rule="evenodd" clip-rule="evenodd" d="M253.355 115.491V25.6647L287.521 12.8324V115.491C287.521 133.209 301.861 147.572 319.551 147.572V181.792C282.992 181.792 253.355 152.108 253.355 115.491Z" fill="#F73859"/>
<path fill-rule="evenodd" clip-rule="evenodd" d="M396.425 89.8266H347.311V55.6069H396.425V89.8266Z" fill="#F73859"/>
<path fill-rule="evenodd" clip-rule="evenodd" d="M319.551 89.8266H270.438V55.6069H319.551V89.8266Z" fill="#F73859"/>
<path fill-rule="evenodd" clip-rule="evenodd" d="M240.542 118.699C240.542 153.544 212.339 181.792 177.549 181.792C142.758 181.792 114.555 153.544 114.555 118.699C114.555 83.8544 142.758 55.6069 177.549 55.6069C212.339 55.6069 240.542 83.8544 240.542 118.699ZM177.549 147.572C193.47 147.572 206.376 134.645 206.376 118.699C206.376 102.753 193.47 89.8266 177.549 89.8266C161.627 89.8266 148.721 102.753 148.721 118.699C148.721 134.645 161.627 147.572 177.549 147.572Z" fill="#F73859"/>
<path d="M578.167 96.481C573.356 83.6734 564.517 72.7797 552.985 65.4426C541.452 58.1054 527.85 54.7226 514.23 55.8042C500.61 56.8858 487.71 62.3732 477.476 71.4389C467.241 80.5046 460.227 92.6572 457.491 106.064C454.755 119.471 456.445 133.406 462.307 145.767C468.168 158.128 477.883 168.245 489.987 174.593C502.091 180.941 515.927 183.175 529.41 180.959C542.892 178.743 555.29 172.197 564.733 162.308L540.128 138.738C535.788 143.282 530.091 146.29 523.896 147.308C517.701 148.326 511.343 147.3 505.781 144.383C500.219 141.466 495.755 136.817 493.062 131.137C490.369 125.457 489.592 119.054 490.849 112.893C492.106 106.733 495.329 101.149 500.032 96.9828C504.735 92.8171 510.662 90.2956 516.921 89.7986C523.179 89.3016 529.43 90.856 534.729 94.2275C540.028 97.5989 544.09 102.605 546.301 108.49L578.167 96.481Z" fill="#F73859"/>
<path d="M556.183 104.766L578.167 96.481L584.935 114.497L562.951 122.781L556.183 104.766Z" fill="#F73859"/>
<path fill-rule="evenodd" clip-rule="evenodd" d="M716.732 118.699C716.732 154.707 686.869 181.792 652.67 181.792C618.472 181.792 588.609 154.707 588.609 118.699C588.609 82.6921 618.472 55.6069 652.67 55.6069C686.869 55.6069 716.732 82.6921 716.732 118.699ZM652.67 147.572C669.181 147.572 682.565 134.645 682.565 118.699C682.565 102.753 669.181 89.8266 652.67 89.8266C636.16 89.8266 622.775 102.753 622.775 118.699C622.775 134.645 636.16 147.572 652.67 147.572Z" fill="#F73859"/>
<path fill-rule="evenodd" clip-rule="evenodd" d="M0.731628 17.1098L71.8474 129.886L142.963 17.1098H102.358L71.8474 64.7387L41.3363 17.1098H0.731628Z" fill="#F73859"/>
</svg>
